<svg width="48" height="48" viewBox="0 0 48 48" fill="none" xmlns="http://www.w3.org/2000/svg">
<path d="M0 24C0 10.7452 10.7452 0 24 0V0C37.2548 0 48 10.7452 48 24V24C48 37.2548 37.2548 48 24 48V48C10.7452 48 0 37.2548 0 24V24Z" fill="#E3EBFD"/>
<path d="M23.9999 24C26.3011 24 28.1666 22.1345 28.1666 19.8333C28.1666 17.5322 26.3011 15.6667 23.9999 15.6667C21.6987 15.6667 19.8333 17.5322 19.8333 19.8333C19.8333 22.1345 21.6987 24 23.9999 24Z" stroke="#4475F2" stroke-width="1.2" stroke-linecap="round" stroke-linejoin="round"/>
<path d="M31.1582 32.3333C31.1582 29.1083 27.9499 26.5 23.9999 26.5C20.0499 26.5 16.8416 29.1083 16.8416 32.3333" stroke="#4475F2" stroke-width="1.2" stroke-linecap="round" stroke-linejoin="round"/>
</svg>
